<?xml version="1.0" encoding="utf-8"?>
<svg height="24px" id="Layer_1" style="enable-background:new 0 0 512 512;" version="1.1" viewBox="0 0 24 24" width="24px" xmlns="http://www.w3.org/2000/svg" xmlns:bx="https://boxy-svg.com">
  <path d="M -0.819 0.137 H -0.819 L -0.819 -0.863 L 2.181 0.637 L -0.819 2.137 L -0.819 1.137 H -0.819 V 0.137 Z" style="fill-opacity: 0.99;" transform="matrix(1, 0.000052, -0.000052, 1, 15.763259, 15.028018)" bx:shape="arrow -0.819 -0.863 3 3 1 3 0 1@2a6069b5"/>
  <path d="M -2.457 0.137 H 3.543 L 3.543 -0.863 L 6.543 0.637 L 3.543 2.137 L 3.543 1.137 H -2.457 V 0.137 Z" style="fill-opacity: 0.99;" transform="matrix(-1, -0.000052, 0.000052, -1, 12.543045, 16.302315)" bx:shape="arrow -2.457 -0.863 9 3 1 3 0 1@1707d13f"/>
  <path d="M 14.027 11.318 C 14.027 11.816 13.623 12.22 13.125 12.22 L 7.705 12.22 C 7.206 12.22 6.8 11.816 6.8 11.318 L 6.8 7.704 C 6.8 7.204 7.206 6.8 7.705 6.8 L 13.125 6.8 C 13.623 6.8 14.027 7.204 14.027 7.704 L 14.027 11.318 Z M 17.641 6.8 L 14.932 8.707 L 14.932 10.313 L 17.641 12.22 L 17.641 6.8 Z" style="fill-opacity: 0.99;" bx:origin="0.507333 0.498155"/>
</svg>