<?xml version="1.0" encoding="utf-8"?>
<svg height="24px" id="Layer_1" style="enable-background:new 0 0 512 512;" version="1.1" viewBox="0 0 24 24" width="24px" xmlns="http://www.w3.org/2000/svg" xmlns:bx="https://boxy-svg.com">
  <g style="" transform="matrix(0.451358, 0, 0, 0.451358, -13.940945, -37.330368)">
    <path d="M 65.213 98.295 L 62.175 98.295 L 60.357 96.459 C 60.357 96.459 60.348 96.45 60.344 96.45 L 60.335 96.441 L 60.335 96.441 C 60.065 96.171 59.7 96 59.286 96 L 55.506 96 C 55.065 96 54.673 96.189 54.399 96.491 L 54.399 96.495 L 52.621 98.295 L 49.516 98.295 C 48.679 98.295 48.004 98.952 48.004 99.789 L 48.004 108.884 C 48.004 109.721 48.679 110.401 49.516 110.401 L 65.213 110.401 C 66.045 110.401 66.725 109.721 66.725 108.884 L 66.725 99.789 C 66.725 98.952 66.045 98.295 65.213 98.295 Z M 57.364 108.128 C 55.074 108.128 53.206 106.256 53.206 103.961 C 53.206 101.661 55.074 99.794 57.364 99.794 C 59.66 99.794 61.523 101.661 61.523 103.961 C 61.523 106.256 59.66 108.128 57.364 108.128 Z M 64.929 100.703 C 64.583 100.703 64.299 100.419 64.299 100.068 C 64.299 99.717 64.583 99.434 64.929 99.434 C 65.276 99.434 65.559 99.717 65.559 100.068 C 65.559 100.419 65.276 100.703 64.929 100.703 Z" style="fill-opacity: 0.99;"/>
    <path d="M 57.364 100.811 C 55.627 100.811 54.223 102.219 54.223 103.961 C 54.223 105.698 55.627 107.111 57.364 107.111 C 59.097 107.111 60.505 105.702 60.505 103.961 C 60.505 102.219 59.097 100.811 57.364 100.811 Z" style="fill-opacity: 0.99;"/>
  </g>
  <path d="M -0.819 0.137 H -0.819 L -0.819 -0.863 L 2.181 0.637 L -0.819 2.137 L -0.819 1.137 H -0.819 V 0.137 Z" style="fill-opacity: 0.99;" transform="matrix(1, 0.000052, -0.000052, 1, 15.763259, 15.028018)" bx:shape="arrow -0.819 -0.863 3 3 1 3 0 1@2a6069b5"/>
  <path d="M -2.457 0.137 H 3.543 L 3.543 -0.863 L 6.543 0.637 L 3.543 2.137 L 3.543 1.137 H -2.457 V 0.137 Z" style="fill-opacity: 0.99;" transform="matrix(-1, -0.000052, 0.000052, -1, 12.543045, 16.302315)" bx:shape="arrow -2.457 -0.863 9 3 1 3 0 1@1707d13f"/>
</svg>