<?xml version="1.0" encoding="utf-8"?>
<svg width="24" height="24" viewBox="0 0 24 24" xmlns="http://www.w3.org/2000/svg" xmlns:bx="https://boxy-svg.com">
  <defs>
    <path id="path-0" d="M 26.03957998292792 10.91036049713879 L 37.975293980631456 19.09355835162492" style="fill: none;"/>
  </defs>
  <path d="M 14.07 11.287 C 14.07 11.785 13.666 12.189 13.168 12.189 L 7.748 12.189 C 7.249 12.189 6.843 11.785 6.843 11.287 L 6.843 7.673 C 6.843 7.173 7.249 6.769 7.748 6.769 L 13.168 6.769 C 13.666 6.769 14.07 7.173 14.07 7.673 L 14.07 11.287 Z M 17.684 6.769 L 14.975 8.676 L 14.975 10.282 L 17.684 12.189 L 17.684 6.769 Z" style="fill-opacity: 0.99;"/>
  <path style="fill-rule: nonzero; fill-opacity: 0; paint-order: stroke; stroke-opacity: 0.99; stroke: rgb(0, 0, 0);" d="M 9.155 13.675 C 12.518 13.675 15.428 16.013 16.155 19.296" transform="matrix(-0.777146, 0.62932, -0.62932, -0.777146, 32.283227, 20.234766)" bx:origin="0.486266 0.383993"/>
  <path d="M -0.819 0.137 H -0.819 L -0.819 -0.863 L 2.181 0.637 L -0.819 2.137 L -0.819 1.137 H -0.819 V 0.137 Z" style="fill-opacity: 0.99;" transform="matrix(0.788043, -0.61562, 0.61562, 0.788043, 16.735477, 14.398442)" bx:shape="arrow -0.819 -0.863 3 3 1 3 0 1@2a6069b5"/>
  <path d="M -0.819 0.137 H -0.819 L -0.819 -0.863 L 2.181 0.637 L -0.819 2.137 L -0.819 1.137 H -0.819 V 0.137 Z" style="fill-opacity: 0.99;" transform="matrix(-0.787978, -0.615703, 0.615703, -0.787978, 6.598428, 15.387385)" bx:shape="arrow -0.819 -0.863 3 3 1 3 0 1@2a6069b5"/>
</svg>